<mxfile host="app.diagrams.net" modified="2023-12-20T17:06:33.342Z" agent="Mozilla/5.0 (Windows NT 10.0; Win64; x64) AppleWebKit/537.36 (KHTML, like Gecko) Chrome/120.0.0.0 Safari/537.36" etag="6IrWyaPz0IBfJdZMvmT1" version="22.1.11" type="github">
  <diagram name="Page-1" id="e3a06f82-3646-2815-327d-82caf3d4e204">
    <mxGraphModel dx="1507" dy="2058" grid="1" gridSize="10" guides="1" tooltips="1" connect="1" arrows="1" fold="1" page="1" pageScale="1.5" pageWidth="1169" pageHeight="826" background="none" math="0" shadow="0">
      <root>
        <mxCell id="0" style=";html=1;" />
        <mxCell id="1" style=";html=1;" parent="0" />
        <mxCell id="xJ-jLOZ9ohY4lOB-jljI-87" value="" style="rounded=1;whiteSpace=wrap;html=1;fillColor=none;dashed=1;" parent="1" vertex="1">
          <mxGeometry x="80" y="100" width="640" height="540" as="geometry" />
        </mxCell>
        <mxCell id="xJ-jLOZ9ohY4lOB-jljI-81" value="" style="rounded=1;whiteSpace=wrap;html=1;fillColor=none;dashed=1;arcSize=8;" parent="1" vertex="1">
          <mxGeometry x="830" y="100" width="780" height="610" as="geometry" />
        </mxCell>
        <mxCell id="6a7d8f32e03d9370-61" value="" style="whiteSpace=wrap;html=1;fillColor=#f8cecc;fontSize=14;strokeColor=none;verticalAlign=top;rounded=1;" parent="1" vertex="1">
          <mxGeometry x="960" y="118.89" width="620" height="181.11" as="geometry" />
        </mxCell>
        <mxCell id="_Fg3832ocY5UdGi91KtJ-26" style="edgeStyle=orthogonalEdgeStyle;rounded=0;orthogonalLoop=1;jettySize=auto;html=1;startArrow=doubleBlock;startFill=1;strokeColor=#00CC00;endArrow=doubleBlock;endFill=1;entryX=0.509;entryY=1.05;entryDx=0;entryDy=0;entryPerimeter=0;" parent="1" source="xJ-jLOZ9ohY4lOB-jljI-42" target="6a7d8f32e03d9370-13" edge="1">
          <mxGeometry relative="1" as="geometry">
            <mxPoint x="850" y="230" as="targetPoint" />
          </mxGeometry>
        </mxCell>
        <mxCell id="nh6uhX6UCBA931svxPW4-37" style="rounded=1;orthogonalLoop=1;jettySize=auto;html=1;startArrow=doubleBlock;startFill=1;strokeColor=#00CC00;endArrow=doubleBlock;endFill=1;exitX=1.061;exitY=0.673;exitDx=0;exitDy=0;exitPerimeter=0;edgeStyle=orthogonalEdgeStyle;" parent="1" source="6a7d8f32e03d9370-13" target="nh6uhX6UCBA931svxPW4-12" edge="1">
          <mxGeometry relative="1" as="geometry">
            <mxPoint x="850" y="270" as="targetPoint" />
            <mxPoint x="660" y="500" as="sourcePoint" />
            <Array as="points">
              <mxPoint x="930" y="416" />
              <mxPoint x="930" y="270" />
            </Array>
          </mxGeometry>
        </mxCell>
        <mxCell id="6a7d8f32e03d9370-13" value="pfsense&lt;br&gt;WAN:10.0.10.20&lt;br&gt;LAN20:10.10.20.1&lt;br&gt;LAN30:10.10.30.1&lt;br&gt;LAN40:10.10.40.1" style="verticalLabelPosition=top;aspect=fixed;html=1;verticalAlign=bottom;strokeColor=none;shape=mxgraph.citrix.router;fillColor=#66B2FF;gradientColor=#0066CC;fontSize=14;labelPosition=center;align=center;" parent="1" vertex="1">
          <mxGeometry x="840" y="391.11" width="55" height="36.5" as="geometry" />
        </mxCell>
        <mxCell id="6a7d8f32e03d9370-62" value="Quantum Tech Inovations - Network Topology" style="text;strokeColor=none;fillColor=none;html=1;fontSize=24;fontStyle=1;verticalAlign=middle;align=center;" parent="1" vertex="1">
          <mxGeometry x="444.75" width="630.5" height="20" as="geometry" />
        </mxCell>
        <mxCell id="_Fg3832ocY5UdGi91KtJ-58" value="" style="fontColor=#0066CC;verticalAlign=top;verticalLabelPosition=bottom;labelPosition=center;align=center;html=1;outlineConnect=0;fillColor=#CCCCCC;strokeColor=#6881B3;gradientColor=none;gradientDirection=north;strokeWidth=2;shape=mxgraph.networks.firewall;" parent="1" vertex="1">
          <mxGeometry x="852.5" y="406" width="30" height="28.5" as="geometry" />
        </mxCell>
        <mxCell id="r5elW0VxAyG1ImCirG1p-3" value="&lt;h1&gt;WAN&lt;/h1&gt;" style="text;html=1;strokeColor=none;fillColor=none;align=center;verticalAlign=middle;whiteSpace=wrap;rounded=0;" parent="1" vertex="1">
          <mxGeometry x="337.88" y="55" width="124.25" height="40" as="geometry" />
        </mxCell>
        <mxCell id="xJ-jLOZ9ohY4lOB-jljI-17" value="" style="rounded=0;orthogonalLoop=1;jettySize=auto;html=1;startArrow=doubleBlock;startFill=1;strokeColor=#00CC00;endArrow=doubleBlock;endFill=1;exitX=0.181;exitY=0.978;exitDx=0;exitDy=0;exitPerimeter=0;edgeStyle=orthogonalEdgeStyle;" parent="1" source="6a7d8f32e03d9370-13" target="xJ-jLOZ9ohY4lOB-jljI-50" edge="1">
          <mxGeometry relative="1" as="geometry">
            <mxPoint x="880" y="650" as="targetPoint" />
            <mxPoint x="430" y="940" as="sourcePoint" />
            <Array as="points">
              <mxPoint x="850" y="650" />
            </Array>
          </mxGeometry>
        </mxCell>
        <mxCell id="xJ-jLOZ9ohY4lOB-jljI-18" value="&lt;font style=&quot;font-size: 12px;&quot;&gt;&lt;font style=&quot;font-size: 12px;&quot;&gt;10GBASE&lt;/font&gt;-T&lt;/font&gt;" style="edgeLabel;html=1;align=center;verticalAlign=middle;resizable=0;points=[];labelBackgroundColor=#97D077;labelBorderColor=#00fa11;fontSize=12;fontColor=#FFFFFF;" parent="xJ-jLOZ9ohY4lOB-jljI-17" vertex="1" connectable="0">
          <mxGeometry x="-0.8088" y="-3" relative="1" as="geometry">
            <mxPoint x="21" y="-9" as="offset" />
          </mxGeometry>
        </mxCell>
        <mxCell id="xJ-jLOZ9ohY4lOB-jljI-1" value="Windows 10&lt;br&gt;VM: 10.10.20.10" style="verticalLabelPosition=top;aspect=fixed;html=1;verticalAlign=bottom;strokeColor=none;shape=mxgraph.citrix.thin_client;fillColor=#66B2FF;gradientColor=#0066CC;fontSize=14;labelPosition=center;align=center;" parent="1" vertex="1">
          <mxGeometry x="1311" y="160" width="68" height="68" as="geometry" />
        </mxCell>
        <mxCell id="_Fg3832ocY5UdGi91KtJ-41" value="&lt;h1&gt;VLAN 20: Sales &amp;amp; Marketing&lt;/h1&gt;&lt;p&gt;&amp;nbsp;IP Range: 10.10.20.1 - 10.10.20.254&lt;br&gt;(static) Infrastructure Range: 10.10.20.1 - 10.10.20.9&lt;br&gt;(static) Device Range: 10.10.20.10 - 10.10.20.99&lt;br&gt;DHCP Range: 10.10.20.100 - 10.10.20.199&lt;br&gt;(static) Internal/IoT Range: 10.10.20.200 - 10.10.20.254&lt;br&gt;&lt;/p&gt;" style="text;html=1;strokeColor=none;fillColor=none;spacing=5;spacingTop=-20;whiteSpace=wrap;overflow=hidden;rounded=0;" parent="1" vertex="1">
          <mxGeometry x="960" y="118.89" width="330" height="130" as="geometry" />
        </mxCell>
        <mxCell id="7m7LXORBQbgby_Iv6g5R-3" style="edgeStyle=orthogonalEdgeStyle;rounded=0;orthogonalLoop=1;jettySize=auto;html=1;dashed=1;" edge="1" parent="1" source="nh6uhX6UCBA931svxPW4-12" target="_Fg3832ocY5UdGi91KtJ-22">
          <mxGeometry relative="1" as="geometry">
            <Array as="points">
              <mxPoint x="1490" y="270" />
            </Array>
          </mxGeometry>
        </mxCell>
        <mxCell id="nh6uhX6UCBA931svxPW4-12" value="Switch&lt;br&gt;10.10.20.2" style="verticalLabelPosition=middle;sketch=0;aspect=fixed;html=1;verticalAlign=middle;strokeColor=none;align=left;outlineConnect=0;shape=mxgraph.citrix.switch;labelPosition=right;labelBackgroundColor=none;" parent="1" vertex="1">
          <mxGeometry x="960" y="248.89" width="87.81818181818183" height="39.61363636363637" as="geometry" />
        </mxCell>
        <mxCell id="xJ-jLOZ9ohY4lOB-jljI-65" value="" style="group" parent="1" vertex="1" connectable="0">
          <mxGeometry x="1415" y="128.89" width="160" height="110" as="geometry" />
        </mxCell>
        <mxCell id="_Fg3832ocY5UdGi91KtJ-20" value="" style="verticalLabelPosition=top;aspect=fixed;html=1;verticalAlign=bottom;shape=mxgraph.citrix.thin_client;fontSize=14;labelPosition=center;align=center;gradientDirection=south;opacity=20;movable=1;resizable=1;rotatable=1;deletable=1;editable=1;locked=0;connectable=1;" parent="xJ-jLOZ9ohY4lOB-jljI-65" vertex="1">
          <mxGeometry x="82.23000000000002" y="27.769999999999996" width="62.23" height="62.23" as="geometry" />
        </mxCell>
        <mxCell id="_Fg3832ocY5UdGi91KtJ-21" value="" style="verticalLabelPosition=top;aspect=fixed;html=1;verticalAlign=bottom;shape=mxgraph.citrix.thin_client;fontSize=14;labelPosition=center;align=center;gradientDirection=south;opacity=20;movable=1;resizable=1;rotatable=1;deletable=1;editable=1;locked=0;connectable=1;" parent="xJ-jLOZ9ohY4lOB-jljI-65" vertex="1">
          <mxGeometry x="10" y="27.769999999999996" width="62.23" height="62.23" as="geometry" />
        </mxCell>
        <mxCell id="_Fg3832ocY5UdGi91KtJ-22" value="&lt;h4 style=&quot;line-height: 120%;&quot;&gt;&lt;br&gt;&lt;/h4&gt;" style="rounded=1;whiteSpace=wrap;html=1;dashed=1;fillColor=none;movable=1;resizable=1;rotatable=1;deletable=1;editable=1;locked=0;connectable=1;align=center;" parent="xJ-jLOZ9ohY4lOB-jljI-65" vertex="1">
          <mxGeometry width="160" height="110" as="geometry" />
        </mxCell>
        <mxCell id="xJ-jLOZ9ohY4lOB-jljI-64" value="Expansion" style="text;html=1;strokeColor=none;fillColor=none;align=center;verticalAlign=middle;whiteSpace=wrap;rounded=0;" parent="xJ-jLOZ9ohY4lOB-jljI-65" vertex="1">
          <mxGeometry x="50" width="60" height="30" as="geometry" />
        </mxCell>
        <mxCell id="xJ-jLOZ9ohY4lOB-jljI-82" value="&lt;font style=&quot;font-size: 24px;&quot;&gt;&lt;b&gt;Work-Site A&lt;/b&gt;&lt;/font&gt;" style="text;html=1;align=center;verticalAlign=middle;resizable=0;points=[];autosize=1;strokeColor=none;fillColor=none;" parent="1" vertex="1">
          <mxGeometry x="1140" y="55" width="160" height="40" as="geometry" />
        </mxCell>
        <mxCell id="xJ-jLOZ9ohY4lOB-jljI-99" style="edgeStyle=orthogonalEdgeStyle;rounded=1;orthogonalLoop=1;jettySize=auto;html=1;shape=flexArrow;endArrow=none;endFill=0;fillColor=#000000;fillStyle=cross-hatch;strokeWidth=2;" parent="1" source="nh6uhX6UCBA931svxPW4-34" edge="1">
          <mxGeometry relative="1" as="geometry">
            <mxPoint x="779" y="410" as="targetPoint" />
            <Array as="points">
              <mxPoint x="759" y="410" />
              <mxPoint x="779" y="410" />
            </Array>
          </mxGeometry>
        </mxCell>
        <mxCell id="xJ-jLOZ9ohY4lOB-jljI-86" value="" style="shape=flexArrow;endArrow=none;startArrow=classic;html=1;rounded=1;endFill=0;targetPerimeterSpacing=0;sourcePerimeterSpacing=6;strokeWidth=2;endSize=0;startSize=6;fillColor=none;exitX=1;exitY=0.5;exitDx=0;exitDy=0;edgeStyle=orthogonalEdgeStyle;" parent="1" source="xJ-jLOZ9ohY4lOB-jljI-97" edge="1">
          <mxGeometry width="100" height="100" relative="1" as="geometry">
            <mxPoint x="505.05000000000297" y="123.25000000000003" as="sourcePoint" />
            <mxPoint x="789" y="400" as="targetPoint" />
            <Array as="points">
              <mxPoint x="759" y="192" />
              <mxPoint x="759" y="410" />
              <mxPoint x="790" y="410" />
            </Array>
          </mxGeometry>
        </mxCell>
        <mxCell id="xJ-jLOZ9ohY4lOB-jljI-97" value="INTERNET" style="image;html=1;image=img/lib/clip_art/networking/Cloud_128x128.png;labelPosition=center;verticalLabelPosition=middle;align=center;verticalAlign=middle;fontStyle=1;fontSize=16;labelBackgroundColor=none;" parent="1" vertex="1">
          <mxGeometry x="299.44" y="108.61000000000001" width="201.12" height="146" as="geometry" />
        </mxCell>
        <mxCell id="6a7d8f32e03d9370-57" value="" style="whiteSpace=wrap;html=1;fillColor=#ffcccc;fontSize=14;verticalAlign=top;container=0;strokeWidth=4;fillStyle=cross-hatch;strokeColor=#ff0000;rounded=1;arcSize=9;" parent="1" vertex="1">
          <mxGeometry x="119.99" y="290" width="560" height="320" as="geometry" />
        </mxCell>
        <mxCell id="7m7LXORBQbgby_Iv6g5R-11" style="edgeStyle=orthogonalEdgeStyle;rounded=0;orthogonalLoop=1;jettySize=auto;html=1;" edge="1" parent="1" source="_Fg3832ocY5UdGi91KtJ-36" target="6a7d8f32e03d9370-25">
          <mxGeometry relative="1" as="geometry" />
        </mxCell>
        <mxCell id="_Fg3832ocY5UdGi91KtJ-36" value="pfsense&lt;br&gt;WAN: 10.0.10.10&lt;br&gt;LAN: 10.10.10.1" style="verticalLabelPosition=top;aspect=fixed;html=1;verticalAlign=bottom;strokeColor=none;shape=mxgraph.citrix.router;fillColor=#66B2FF;gradientColor=#0066CC;fontSize=14;container=0;labelPosition=center;align=center;labelBackgroundColor=default;" parent="1" vertex="1">
          <mxGeometry x="529.99" y="489.25" width="60.27" height="40" as="geometry" />
        </mxCell>
        <mxCell id="_Fg3832ocY5UdGi91KtJ-40" value="&lt;h1&gt;VLAN 10: Management&lt;/h1&gt;&lt;p&gt;IP Range: 10.10.10.1 - 10.10.10.254&lt;br&gt;(static) Infrastructure Range: 10.10.10.1 - 10.10.10.99&lt;br&gt;DHCP Range: 10.10.10.100 - 10.10.10.199&lt;br&gt;(static) Internal/IoT Range: 10.10.10.200 - 10.10.10.254&lt;br&gt;&lt;br&gt;&lt;/p&gt;" style="text;html=1;strokeColor=default;fillColor=#FFEBEB;spacing=5;spacingTop=-20;whiteSpace=wrap;overflow=hidden;rounded=1;container=0;labelBackgroundColor=none;strokeWidth=3;" parent="1" vertex="1">
          <mxGeometry x="349.99" y="307.61" width="308.54" height="110" as="geometry" />
        </mxCell>
        <mxCell id="6a7d8f32e03d9370-25" value="Secure Server&lt;br&gt;10.10.10.2" style="verticalLabelPosition=top;aspect=fixed;html=1;verticalAlign=bottom;strokeColor=none;shape=mxgraph.citrix.proxy_server;fillColor=#66B2FF;gradientColor=#0066CC;fontSize=14;container=0;labelPosition=center;align=center;labelBackgroundColor=default;" parent="1" vertex="1">
          <mxGeometry x="385.62" y="464.25000000000006" width="76.5" height="90" as="geometry" />
        </mxCell>
        <mxCell id="xJ-jLOZ9ohY4lOB-jljI-85" value="Central Server Site" style="text;html=1;strokeColor=none;fillColor=default;align=center;verticalAlign=middle;whiteSpace=wrap;rounded=1;fontSize=24;" parent="1" vertex="1">
          <mxGeometry x="307.91" y="254.61" width="208.25" height="30" as="geometry" />
        </mxCell>
        <mxCell id="xJ-jLOZ9ohY4lOB-jljI-83" value="" style="shape=flexArrow;endArrow=none;startArrow=classic;html=1;rounded=1;strokeWidth=2;exitX=1.022;exitY=0.486;exitDx=0;exitDy=0;exitPerimeter=0;endFill=0;fillColor=#000000;fillStyle=cross-hatch;edgeStyle=orthogonalEdgeStyle;" parent="1" source="_Fg3832ocY5UdGi91KtJ-36" target="nh6uhX6UCBA931svxPW4-34" edge="1">
          <mxGeometry width="100" height="100" relative="1" as="geometry">
            <mxPoint x="552" y="564" as="sourcePoint" />
            <mxPoint x="739.04" y="519.3529999999998" as="targetPoint" />
          </mxGeometry>
        </mxCell>
        <mxCell id="xJ-jLOZ9ohY4lOB-jljI-98" value="" style="shape=flexArrow;endArrow=classic;html=1;rounded=1;entryX=-0.03;entryY=0.472;entryDx=0;entryDy=0;entryPerimeter=0;fillColor=#000000;strokeWidth=3;width=13;targetPerimeterSpacing=0;edgeStyle=orthogonalEdgeStyle;endSize=6;startSize=6;" parent="1" target="6a7d8f32e03d9370-13" edge="1">
          <mxGeometry width="50" height="50" relative="1" as="geometry">
            <mxPoint x="764" y="408" as="sourcePoint" />
            <mxPoint x="780" y="384.36" as="targetPoint" />
          </mxGeometry>
        </mxCell>
        <mxCell id="nh6uhX6UCBA931svxPW4-34" value="Encrypted &lt;br&gt;VPN Tunnel" style="outlineConnect=0;dashed=0;verticalLabelPosition=middle;verticalAlign=middle;align=left;html=1;shape=mxgraph.aws3.encrypted_data;fillColor=#7D7C7C;gradientColor=none;container=0;labelPosition=right;labelBackgroundColor=default;labelBorderColor=default;" parent="1" vertex="1">
          <mxGeometry x="750" y="483.5" width="40" height="51.5" as="geometry" />
        </mxCell>
        <mxCell id="7m7LXORBQbgby_Iv6g5R-2" style="edgeStyle=orthogonalEdgeStyle;rounded=0;orthogonalLoop=1;jettySize=auto;html=1;entryX=0.518;entryY=0.924;entryDx=0;entryDy=0;entryPerimeter=0;" edge="1" parent="1" source="nh6uhX6UCBA931svxPW4-12" target="xJ-jLOZ9ohY4lOB-jljI-1">
          <mxGeometry relative="1" as="geometry">
            <Array as="points">
              <mxPoint x="1346" y="270" />
            </Array>
          </mxGeometry>
        </mxCell>
        <mxCell id="6a7d8f32e03d9370-60" value="" style="whiteSpace=wrap;html=1;fillColor=#d5e8d4;fontSize=14;strokeColor=none;verticalAlign=top;movable=1;resizable=1;rotatable=1;deletable=1;editable=1;locked=0;connectable=1;rounded=1;" parent="1" vertex="1">
          <mxGeometry x="960" y="310" width="620" height="180" as="geometry" />
        </mxCell>
        <mxCell id="xJ-jLOZ9ohY4lOB-jljI-40" value="Windows 10&lt;br&gt;VM: 10.10.30.10" style="verticalLabelPosition=top;aspect=fixed;html=1;verticalAlign=bottom;strokeColor=none;shape=mxgraph.citrix.thin_client;fillColor=#66B2FF;gradientColor=#0066CC;fontSize=14;labelPosition=center;align=center;" parent="1" vertex="1">
          <mxGeometry x="1311" y="352.12" width="68" height="68" as="geometry" />
        </mxCell>
        <mxCell id="xJ-jLOZ9ohY4lOB-jljI-42" value="Switch&lt;br&gt;10.10.30.2" style="verticalLabelPosition=middle;sketch=0;aspect=fixed;html=1;verticalAlign=middle;strokeColor=none;align=left;outlineConnect=0;shape=mxgraph.citrix.switch;labelPosition=right;" parent="1" vertex="1">
          <mxGeometry x="960" y="439.9999999999999" width="87.81818181818183" height="39.61363636363637" as="geometry" />
        </mxCell>
        <mxCell id="_Fg3832ocY5UdGi91KtJ-42" value="&lt;h1&gt;VLAN 30: R&amp;amp;D&lt;br&gt;&lt;/h1&gt;&lt;p&gt;IP Range: 10.10.30.1 - 10.10.30.254&lt;br&gt;(static) Infrastructure Range: 10.10.30.1 - 10.10.30.9&lt;br&gt;(static) Device Range: 10.10.30.10 - 10.10.30.99&lt;br&gt;DHCP Range: 10.10.30.100 - 10.10.30.199&lt;br&gt;(static) Internal/IoT Range: 10.10.30.200 - 10.10.30.254&lt;br&gt;&lt;/p&gt;" style="text;html=1;strokeColor=none;fillColor=none;spacing=5;spacingTop=-20;whiteSpace=wrap;overflow=hidden;rounded=0;" parent="1" vertex="1">
          <mxGeometry x="960" y="311.12" width="309" height="150" as="geometry" />
        </mxCell>
        <mxCell id="xJ-jLOZ9ohY4lOB-jljI-66" value="" style="group" parent="1" vertex="1" connectable="0">
          <mxGeometry x="1415" y="317.61" width="160" height="110" as="geometry" />
        </mxCell>
        <mxCell id="xJ-jLOZ9ohY4lOB-jljI-67" value="" style="verticalLabelPosition=top;aspect=fixed;html=1;verticalAlign=bottom;shape=mxgraph.citrix.thin_client;fontSize=14;labelPosition=center;align=center;gradientDirection=south;opacity=20;movable=1;resizable=1;rotatable=1;deletable=1;editable=1;locked=0;connectable=1;" parent="xJ-jLOZ9ohY4lOB-jljI-66" vertex="1">
          <mxGeometry x="82.23000000000002" y="27.769999999999996" width="62.23" height="62.23" as="geometry" />
        </mxCell>
        <mxCell id="xJ-jLOZ9ohY4lOB-jljI-68" value="" style="verticalLabelPosition=top;aspect=fixed;html=1;verticalAlign=bottom;shape=mxgraph.citrix.thin_client;fontSize=14;labelPosition=center;align=center;gradientDirection=south;opacity=20;movable=1;resizable=1;rotatable=1;deletable=1;editable=1;locked=0;connectable=1;" parent="xJ-jLOZ9ohY4lOB-jljI-66" vertex="1">
          <mxGeometry x="10" y="27.769999999999996" width="62.23" height="62.23" as="geometry" />
        </mxCell>
        <mxCell id="xJ-jLOZ9ohY4lOB-jljI-69" value="&lt;h4 style=&quot;line-height: 120%;&quot;&gt;&lt;br&gt;&lt;/h4&gt;" style="rounded=1;whiteSpace=wrap;html=1;dashed=1;fillColor=none;movable=1;resizable=1;rotatable=1;deletable=1;editable=1;locked=0;connectable=1;align=center;" parent="xJ-jLOZ9ohY4lOB-jljI-66" vertex="1">
          <mxGeometry width="160" height="110" as="geometry" />
        </mxCell>
        <mxCell id="xJ-jLOZ9ohY4lOB-jljI-70" value="Expansion" style="text;html=1;strokeColor=none;fillColor=none;align=center;verticalAlign=middle;whiteSpace=wrap;rounded=0;" parent="xJ-jLOZ9ohY4lOB-jljI-66" vertex="1">
          <mxGeometry x="50" width="60" height="30" as="geometry" />
        </mxCell>
        <mxCell id="7m7LXORBQbgby_Iv6g5R-5" style="edgeStyle=orthogonalEdgeStyle;rounded=0;orthogonalLoop=1;jettySize=auto;html=1;dashed=1;" edge="1" parent="1" source="xJ-jLOZ9ohY4lOB-jljI-42" target="xJ-jLOZ9ohY4lOB-jljI-69">
          <mxGeometry relative="1" as="geometry" />
        </mxCell>
        <mxCell id="7m7LXORBQbgby_Iv6g5R-4" style="edgeStyle=orthogonalEdgeStyle;rounded=0;orthogonalLoop=1;jettySize=auto;html=1;entryX=0.529;entryY=0.971;entryDx=0;entryDy=0;entryPerimeter=0;" edge="1" parent="1" source="xJ-jLOZ9ohY4lOB-jljI-42" target="xJ-jLOZ9ohY4lOB-jljI-40">
          <mxGeometry relative="1" as="geometry" />
        </mxCell>
        <mxCell id="6a7d8f32e03d9370-58" value="" style="whiteSpace=wrap;html=1;fillColor=#dae8fc;fontSize=14;strokeColor=none;verticalAlign=top;movable=1;resizable=1;rotatable=1;deletable=1;editable=1;locked=0;connectable=1;rounded=1;" parent="1" vertex="1">
          <mxGeometry x="960" y="500" width="620" height="180" as="geometry" />
        </mxCell>
        <mxCell id="xJ-jLOZ9ohY4lOB-jljI-48" value="Windows 10&lt;br&gt;VM: 10.10.40.10" style="verticalLabelPosition=top;aspect=fixed;html=1;verticalAlign=bottom;strokeColor=none;shape=mxgraph.citrix.thin_client;fillColor=#66B2FF;gradientColor=#0066CC;fontSize=14;labelPosition=center;align=center;" parent="1" vertex="1">
          <mxGeometry x="1309.9999999999998" y="540" width="68" height="68" as="geometry" />
        </mxCell>
        <mxCell id="xJ-jLOZ9ohY4lOB-jljI-50" value="Switch&lt;br&gt;10.10.40.2" style="verticalLabelPosition=middle;sketch=0;aspect=fixed;html=1;verticalAlign=middle;strokeColor=none;align=left;outlineConnect=0;shape=mxgraph.citrix.switch;labelPosition=right;" parent="1" vertex="1">
          <mxGeometry x="959.9999999999998" y="630" width="87.81818181818183" height="39.61363636363637" as="geometry" />
        </mxCell>
        <mxCell id="_Fg3832ocY5UdGi91KtJ-39" value="&lt;h1&gt;VLAN 40: Expansion&lt;/h1&gt;&lt;p&gt;IP Range: 10.10.40.1 - 10.10.40.254&lt;br&gt;(static) Infrastructure Range: 10.10.40.1 - 10.10.40.9&lt;br&gt;(static) Device Range: 10.10.40.10 - 10.10.40.99&lt;br&gt;DHCP Range: 10.10.40.100 - 10.10.40.199&lt;br&gt;(static) Internal/IoT Range: 10.10.40.200 - 10.10.40.254&lt;br&gt;&lt;br&gt;&lt;/p&gt;" style="text;html=1;strokeColor=none;fillColor=none;spacing=5;spacingTop=-20;whiteSpace=wrap;overflow=hidden;rounded=0;" parent="1" vertex="1">
          <mxGeometry x="960" y="500" width="315" height="120" as="geometry" />
        </mxCell>
        <mxCell id="xJ-jLOZ9ohY4lOB-jljI-71" value="" style="group" parent="1" vertex="1" connectable="0">
          <mxGeometry x="1415" y="510" width="160" height="110" as="geometry" />
        </mxCell>
        <mxCell id="xJ-jLOZ9ohY4lOB-jljI-72" value="" style="verticalLabelPosition=top;aspect=fixed;html=1;verticalAlign=bottom;shape=mxgraph.citrix.thin_client;fontSize=14;labelPosition=center;align=center;gradientDirection=south;opacity=20;movable=1;resizable=1;rotatable=1;deletable=1;editable=1;locked=0;connectable=1;" parent="xJ-jLOZ9ohY4lOB-jljI-71" vertex="1">
          <mxGeometry x="82.23000000000002" y="27.769999999999996" width="62.23" height="62.23" as="geometry" />
        </mxCell>
        <mxCell id="xJ-jLOZ9ohY4lOB-jljI-73" value="" style="verticalLabelPosition=top;aspect=fixed;html=1;verticalAlign=bottom;shape=mxgraph.citrix.thin_client;fontSize=14;labelPosition=center;align=center;gradientDirection=south;opacity=20;movable=1;resizable=1;rotatable=1;deletable=1;editable=1;locked=0;connectable=1;" parent="xJ-jLOZ9ohY4lOB-jljI-71" vertex="1">
          <mxGeometry x="10" y="27.769999999999996" width="62.23" height="62.23" as="geometry" />
        </mxCell>
        <mxCell id="xJ-jLOZ9ohY4lOB-jljI-74" value="&lt;h4 style=&quot;line-height: 120%;&quot;&gt;&lt;br&gt;&lt;/h4&gt;" style="rounded=1;whiteSpace=wrap;html=1;dashed=1;fillColor=none;movable=1;resizable=1;rotatable=1;deletable=1;editable=1;locked=0;connectable=1;align=center;" parent="xJ-jLOZ9ohY4lOB-jljI-71" vertex="1">
          <mxGeometry width="160" height="110" as="geometry" />
        </mxCell>
        <mxCell id="xJ-jLOZ9ohY4lOB-jljI-75" value="Expansion" style="text;html=1;strokeColor=none;fillColor=none;align=center;verticalAlign=middle;whiteSpace=wrap;rounded=0;" parent="xJ-jLOZ9ohY4lOB-jljI-71" vertex="1">
          <mxGeometry x="50" width="60" height="30" as="geometry" />
        </mxCell>
        <mxCell id="7m7LXORBQbgby_Iv6g5R-9" style="edgeStyle=orthogonalEdgeStyle;rounded=0;orthogonalLoop=1;jettySize=auto;html=1;dashed=1;" edge="1" parent="1" source="xJ-jLOZ9ohY4lOB-jljI-50" target="xJ-jLOZ9ohY4lOB-jljI-74">
          <mxGeometry relative="1" as="geometry" />
        </mxCell>
        <mxCell id="7m7LXORBQbgby_Iv6g5R-8" style="edgeStyle=orthogonalEdgeStyle;rounded=0;orthogonalLoop=1;jettySize=auto;html=1;entryX=0.447;entryY=0.924;entryDx=0;entryDy=0;entryPerimeter=0;" edge="1" parent="1" source="xJ-jLOZ9ohY4lOB-jljI-50" target="xJ-jLOZ9ohY4lOB-jljI-48">
          <mxGeometry relative="1" as="geometry" />
        </mxCell>
        <mxCell id="7m7LXORBQbgby_Iv6g5R-12" value="" style="group" vertex="1" connectable="0" parent="1">
          <mxGeometry x="189.99000000000004" y="400" width="186.70999999999998" height="177.61" as="geometry" />
        </mxCell>
        <mxCell id="_Fg3832ocY5UdGi91KtJ-57" value="Secure Server: Services" style="text;html=1;strokeColor=none;fillColor=default;align=center;verticalAlign=middle;whiteSpace=wrap;rounded=1;container=0;fontSize=14;fontStyle=1" parent="7m7LXORBQbgby_Iv6g5R-12" vertex="1">
          <mxGeometry x="26.20999999999998" width="110.5" height="30" as="geometry" />
        </mxCell>
        <mxCell id="_Fg3832ocY5UdGi91KtJ-52" value="Active Domain" style="sketch=0;pointerEvents=1;shadow=0;dashed=0;html=1;strokeColor=#6c8ebf;fillColor=#dae8fc;labelPosition=right;verticalLabelPosition=middle;verticalAlign=middle;outlineConnect=0;align=left;shape=mxgraph.office.services.verification_service;container=0;labelBackgroundColor=default;" parent="7m7LXORBQbgby_Iv6g5R-12" vertex="1">
          <mxGeometry x="2.4599999999999795" y="136.86" width="40" height="40.75" as="geometry" />
        </mxCell>
        <mxCell id="6a7d8f32e03d9370-30" value="Web service" style="verticalLabelPosition=middle;aspect=fixed;html=1;verticalAlign=middle;strokeColor=none;shape=mxgraph.citrix.web_service;fillColor=#66B2FF;gradientColor=#0066CC;fontSize=14;container=0;labelPosition=right;align=left;labelBackgroundColor=default;" parent="7m7LXORBQbgby_Iv6g5R-12" vertex="1">
          <mxGeometry y="57.860000000000014" width="41.21" height="39.25" as="geometry" />
        </mxCell>
        <mxCell id="nh6uhX6UCBA931svxPW4-1" value="Domain-Name Service" style="image;sketch=0;aspect=fixed;html=1;points=[];align=left;fontSize=12;image=img/lib/mscae/DNS.svg;container=0;labelPosition=right;verticalLabelPosition=middle;verticalAlign=middle;" parent="7m7LXORBQbgby_Iv6g5R-12" vertex="1">
          <mxGeometry x="1.9599999999999795" y="97.47000000000003" width="39.25" height="39.25" as="geometry" />
        </mxCell>
        <mxCell id="_Fg3832ocY5UdGi91KtJ-32" value="" style="rounded=1;whiteSpace=wrap;html=1;fillColor=none;dashed=1;container=0;" parent="7m7LXORBQbgby_Iv6g5R-12" vertex="1">
          <mxGeometry x="2.4599999999999795" y="39.360000000000014" width="184.25" height="138.25" as="geometry" />
        </mxCell>
      </root>
    </mxGraphModel>
  </diagram>
</mxfile>
